<svg width="24" height="24" viewBox="0 0 24 24" fill="none" xmlns="http://www.w3.org/2000/svg">
<style>
  rect { fill: #1c1917; }
  @media (prefers-color-scheme: dark) {
    rect { fill: #fafaf9; }
  }
</style>
<rect x="13.143" y="17.714" width="2.286" height="2.286"/>
<rect x="15.429" y="15.428" width="2.286" height="2.286"/>
<rect x="17.714" y="13.143" width="2.286" height="2.286"/>
<rect x="10.857" y="15.428" width="2.286" height="2.286"/>
<rect x="8.571" y="13.143" width="2.286" height="2.286"/>
<rect x="13.143" y="8.571" width="2.286" height="2.286"/>
<rect x="13.143" y="6.286" width="2.286" height="2.286"/>
<rect x="10.857" y="4" width="2.286" height="2.286"/>
<rect x="8.571" y="4" width="2.286" height="2.286"/>
<rect x="6.286" y="4" width="2.286" height="2.286"/>
<rect x="4" y="6.286" width="2.286" height="2.286"/>
<rect x="4" y="8.571" width="2.286" height="2.286"/>
<rect x="4" y="10.857" width="2.286" height="2.286"/>
<rect x="4" y="13.143" width="2.286" height="2.286"/>
<rect x="4" y="15.428" width="2.286" height="2.286"/>
<rect x="4" y="17.714" width="2.286" height="2.286"/>
</svg>
