<svg xmlns="http://www.w3.org/2000/svg" viewBox="0 0 144.5 144.5">
  <rect width="144.5" height="144.5" rx="32" fill="#f7c95b"/>
  <path fill="#0b0b0b" d="M117.8 74.4c0-4.6 4.1-13.9 8.4-19-4.6-.6-10.2 4.6-13.3 9.2s-3.5 5.9-5.9 5.5c-2.4-.2-9.5-4.1-14.7-5.8-5.2-1.8-9.3-2.9-15.4-4-.8-1.1-1-3-1-3-3.3-1-9.4-4.2-11.6-11.3-3.4 2.6-7.7 9-9.3 13.3-9 .8-19.7 3.2-32.8 11.4-1.1.7-.7 1.1-.7 2.1 2.9.6 5.2 1.8 7.7 3.9-3.7-.6-8-.2-8 .4-.1 1.7 11 7.7 21.1 10.4 4.8 1.3 7.9 1.8 13.1 2.4 1.2 1.9 5 7.2 9.9 8-1-2.7-1.5-5.2-1.2-7.6 6.6-.2 13-1.1 19.3-2.9 1 .4 5.5 5.8 12 5.6-2.4-2-4.6-5.8-4.9-8.2 9.1-3.5 15.1-6.4 17.2-6.5 3.4-.6 3.7 3.7 8 8.5 2.7 3.3 6.5 6.3 10.5 6.3-2.3-2.6-7.8-12.8-8.4-18.7ZM43.6 83.7c-2-.3-5.6-1.7-8.6-3.6-.6-2.3-1.8-3.2-4.2-5.1-1.2-.9-2.6-1.8-4.2-2.3 3.3-1.3 9.1-2.7 14.6-4.1 1.9-.4 5.7-1.1 5.7-1.1 1.6 1.8 3.2 4.9 3.1 8.5-.4 6.2-3.3 8.2-6.4 7.7Zm38.6-.5c-5.2 1.4-9.7 2-15.6 2.4-6.3.3-11.5 0-15.9-.6 1.6-2.2 2.7-5.4 2.6-9.3 0-2.9-.9-6-2.6-8.8 9.3-1 20.2-1 28.8.4 12.2 1.5 20.9 5.1 34 6.8h-.1l.1.1c-11.5 1-19.4 5.2-31.3 9Z"/>
  <path fill="#0b0b0b" d="M54.3 72.8c2.2 1.4 4.2 4.9 6 5.3 2.8.6 4.3-.4 7.1-1.8 3.2-1.7 6.7-3.4 9.8-4.5v-.4c-5.1-1.7-16.8-1.8-22.9 1.4Z"/>
  <path fill="#fff7db" d="M36.5 68.8c-1.2 0-2.4.8-2.4 2.3s1 2.5 2.4 2.5 2.5-1.1 2.5-2.4c-.1-1.3-1-2.4-2.5-2.4Z"/>
</svg>
